<svg width="15" height="12" viewBox="0 0 15 12" fill="none" xmlns="http://www.w3.org/2000/svg">
<path d="M1.92052 0.0444336C1.02579 0.0444336 0.29834 0.771881 0.29834 1.66662V2.47771H14.898V1.66662C14.898 0.771881 14.1705 0.0444336 13.2758 0.0444336H1.92052ZM14.898 4.91098H0.29834V9.77753C0.29834 10.6723 1.02579 11.3997 1.92052 11.3997H13.2758C14.1705 11.3997 14.898 10.6723 14.898 9.77753V4.91098ZM3.13716 8.15534H4.75934C4.98239 8.15534 5.16489 8.33784 5.16489 8.56089C5.16489 8.78394 4.98239 8.96643 4.75934 8.96643H3.13716C2.91411 8.96643 2.73161 8.78394 2.73161 8.56089C2.73161 8.33784 2.91411 8.15534 3.13716 8.15534ZM5.97598 8.56089C5.97598 8.33784 6.15847 8.15534 6.38152 8.15534H9.62589C9.84894 8.15534 10.0314 8.33784 10.0314 8.56089C10.0314 8.78394 9.84894 8.96643 9.62589 8.96643H6.38152C6.15847 8.96643 5.97598 8.78394 5.97598 8.56089Z" fill="white"/>
</svg>
