<svg width="335" height="72" viewBox="0 0 335 72" fill="none" xmlns="http://www.w3.org/2000/svg">
<g filter="url(#filter0_d_1_1017)">
<mask id="mask0_1_1017" style="mask-type:alpha" maskUnits="userSpaceOnUse" x="59" y="0" width="228" height="139">
<rect x="59.6436" y="0.262695" width="226.8" height="138.6" rx="13.23" fill="#D9D9D9"/>
</mask>
<g mask="url(#mask0_1_1017)">
<g filter="url(#filter1_f_1_1017)">
<rect x="319.321" y="149.677" width="292.438" height="178.395" rx="13.23" transform="rotate(180 319.321 149.677)" fill="url(#paint0_linear_1_1017)"/>
</g>
<g filter="url(#filter2_f_1_1017)">
<circle cx="287.388" cy="120.277" r="85.995" fill="#1DD97E"/>
</g>
<g filter="url(#filter3_f_1_1017)">
<circle cx="79.1733" cy="17.9027" r="48.51" fill="#B4F383"/>
</g>
<path d="M88.8303 39.3838C87.9903 39.3838 87.3216 39.1419 86.8244 38.658C86.3271 38.1675 86.0784 37.4552 86.0784 36.5211V34.9083C86.0784 33.9742 86.3271 33.2652 86.8244 32.7814C87.3216 32.2908 87.9903 32.0456 88.8303 32.0456C89.6636 32.0456 90.302 32.2774 90.7455 32.7411C91.1957 33.2048 91.4208 33.8398 91.4208 34.6462V34.6966H90.5842V34.616C90.5842 34.0851 90.4397 33.6516 90.1508 33.3156C89.8685 32.9729 89.4284 32.8016 88.8303 32.8016C88.2322 32.8016 87.7652 32.9864 87.4292 33.356C87.0932 33.7188 86.9252 34.2296 86.9252 34.8881V36.5412C86.9252 37.1998 87.0932 37.7139 87.4292 38.0835C87.7652 38.4464 88.2322 38.6278 88.8303 38.6278C89.4284 38.6278 89.8685 38.4598 90.1508 38.1238C90.4397 37.7811 90.5842 37.3443 90.5842 36.8134V36.6521H91.4208V36.7832C91.4208 37.5896 91.1957 38.2246 90.7455 38.6883C90.302 39.152 89.6636 39.3838 88.8303 39.3838ZM92.7776 39.2427V34.3136H93.5538V34.9184H93.6949C93.7823 34.7033 93.9167 34.5454 94.0981 34.4446C94.2795 34.3438 94.5181 34.2934 94.8138 34.2934H95.3984V35.0192H94.7634C94.4072 35.0192 94.1183 35.12 93.8965 35.3216C93.6815 35.5164 93.5739 35.8222 93.5739 36.2388V39.2427H92.7776ZM98.658 39.3838C98.1608 39.3838 97.724 39.2796 97.3476 39.0713C96.9713 38.8563 96.679 38.5572 96.4707 38.1742C96.2624 37.7912 96.1582 37.3476 96.1582 36.8436V36.7227C96.1582 36.212 96.2624 35.7651 96.4707 35.382C96.679 34.999 96.968 34.7033 97.3376 34.495C97.7072 34.28 98.1305 34.1724 98.6076 34.1724C99.0713 34.1724 99.4812 34.2732 99.8374 34.4748C100.194 34.6697 100.472 34.952 100.674 35.3216C100.876 35.6912 100.976 36.1246 100.976 36.6219V36.9848H96.9545C96.9747 37.5156 97.146 37.9323 97.4686 38.2347C97.7912 38.5304 98.1944 38.6782 98.6782 38.6782C99.1016 38.6782 99.4275 38.5808 99.656 38.3859C99.8844 38.191 100.059 37.9592 100.18 37.6904L100.866 38.023C100.765 38.2313 100.624 38.4396 100.442 38.648C100.267 38.8563 100.036 39.031 99.7467 39.1721C99.4644 39.3132 99.1016 39.3838 98.658 39.3838ZM96.9646 36.3296H100.17C100.143 35.8726 99.9852 35.5164 99.6963 35.2611C99.414 35.0057 99.0512 34.878 98.6076 34.878C98.1574 34.878 97.7878 35.0057 97.4988 35.2611C97.2099 35.5164 97.0318 35.8726 96.9646 36.3296ZM104.452 39.3838C104.029 39.3838 103.639 39.283 103.283 39.0814C102.927 38.8798 102.644 38.5875 102.436 38.2044C102.228 37.8214 102.124 37.3678 102.124 36.8436V36.7126C102.124 36.1884 102.228 35.7382 102.436 35.3619C102.644 34.9788 102.923 34.6865 103.273 34.4849C103.629 34.2766 104.022 34.1724 104.452 34.1724C104.795 34.1724 105.084 34.2195 105.319 34.3136C105.561 34.4009 105.756 34.5152 105.904 34.6563C106.051 34.7907 106.166 34.9352 106.246 35.0897H106.387V32.1867H107.184V39.2427H106.408V38.4262H106.266C106.132 38.6748 105.924 38.8966 105.641 39.0915C105.359 39.2864 104.963 39.3838 104.452 39.3838ZM104.664 38.6782C105.174 38.6782 105.588 38.5169 105.904 38.1944C106.226 37.8651 106.387 37.4081 106.387 36.8235V36.7328C106.387 36.1481 106.226 35.6945 105.904 35.372C105.588 35.0427 105.174 34.878 104.664 34.878C104.16 34.878 103.743 35.0427 103.414 35.372C103.091 35.6945 102.93 36.1481 102.93 36.7328V36.8235C102.93 37.4081 103.091 37.8651 103.414 38.1944C103.743 38.5169 104.16 38.6782 104.664 38.6782ZM108.852 39.2427V34.3136H109.649V39.2427H108.852ZM109.256 33.5475C109.081 33.5475 108.933 33.4904 108.812 33.3761C108.698 33.2619 108.641 33.1174 108.641 32.9427C108.641 32.7612 108.698 32.6134 108.812 32.4992C108.933 32.3849 109.081 32.3278 109.256 32.3278C109.43 32.3278 109.575 32.3849 109.689 32.4992C109.803 32.6134 109.86 32.7612 109.86 32.9427C109.86 33.1174 109.803 33.2619 109.689 33.3761C109.575 33.4904 109.43 33.5475 109.256 33.5475ZM113.138 39.2427C112.855 39.2427 112.637 39.1654 112.482 39.0108C112.335 38.8563 112.261 38.6446 112.261 38.3758V35.0091H110.779V34.3136H112.261V32.5596H113.057V34.3136H114.67V35.0091H113.057V38.2548C113.057 38.4564 113.154 38.5572 113.349 38.5572H114.448V39.2427H113.138Z" fill="white"/>
<circle cx="250.96" cy="34.722" r="12.4095" fill="white" fill-opacity="0.29"/>
<circle cx="235.853" cy="34.722" r="12.4095" fill="white" fill-opacity="0.68"/>
<g clip-path="url(#clip0_1_1017)">
<path d="M201.372 25.9711L201.41 25.949C201.437 25.9376 201.467 25.9329 201.498 25.9364L201.543 25.948L210.591 29.6309L215.261 25.9674C215.639 25.6709 216.428 25.3446 217.25 25.2458C217.646 25.1982 217.98 25.2131 218.222 25.2699C218.462 25.3263 218.533 25.4032 218.546 25.42C218.609 25.4999 218.739 25.8898 218.419 26.7284C218.127 27.493 217.617 28.1782 217.232 28.4802L212.562 32.1437L213.985 41.8128L213.985 41.8141C213.993 41.8704 213.972 41.9293 213.921 41.9694L212.516 43.0713L209.152 34.8185L203.732 39.0701L203.809 42.6399L203.21 43.1099L201.464 38.8194L197.713 36.102L198.312 35.6319L201.761 36.5573L207.184 32.303L199.97 27.0704L201.372 25.9711ZM212.169 44.6507C212.183 44.653 212.197 44.6543 212.211 44.6558C212.201 44.6547 212.19 44.6545 212.179 44.6529L212.169 44.6507ZM205.072 42.9686C205.071 42.9796 205.068 42.9903 205.066 43.0012C205.068 42.9868 205.071 42.9726 205.072 42.9581L205.072 42.9686ZM219.624 24.765C219.64 24.7897 219.653 24.816 219.667 24.8416C219.652 24.8145 219.638 24.7872 219.621 24.7611L219.624 24.765ZM218.007 23.9688C218.291 23.9899 218.559 24.042 218.799 24.1302C218.706 24.0961 218.61 24.067 218.509 24.0435C218.456 24.031 218.402 24.02 218.347 24.0104C218.237 23.9911 218.124 23.9775 218.007 23.9688ZM198.58 27.6141L198.577 27.6106C198.546 27.5823 198.519 27.5513 198.494 27.5191C198.52 27.5525 198.548 27.5849 198.58 27.6141ZM215.242 41.7183L215.242 41.7249C215.243 41.7395 215.243 41.754 215.243 41.7685C215.243 41.7518 215.243 41.7351 215.242 41.7183ZM202.491 44.5616L202.489 44.5587C202.5 44.5702 202.511 44.5812 202.522 44.5917C202.512 44.582 202.501 44.5721 202.491 44.5616Z" fill="white"/>
</g>
</g>
</g>
<g filter="url(#filter4_d_1_1017)">
<mask id="mask1_1_1017" style="mask-type:alpha" maskUnits="userSpaceOnUse" x="35" y="12" width="277" height="169">
<rect x="35.644" y="12.2634" width="275.4" height="168.3" rx="16.065" fill="#D9D9D9"/>
</mask>
<g mask="url(#mask1_1_1017)">
<g filter="url(#filter5_f_1_1017)">
<rect x="350.967" y="205.171" width="355.103" height="216.623" rx="16.065" transform="rotate(180 350.967 205.171)" fill="url(#paint1_linear_1_1017)"/>
</g>
<g filter="url(#filter6_f_1_1017)">
<ellipse cx="76.1889" cy="213.459" rx="87.21" ry="84.915" fill="#FF7474"/>
</g>
<g filter="url(#filter7_f_1_1017)">
<ellipse cx="295.62" cy="53.1912" rx="67.9609" ry="66.1725" fill="#FFFB98"/>
</g>
<g filter="url(#filter8_f_1_1017)">
<ellipse cx="281.592" cy="161.439" rx="45.5175" ry="44.37" fill="url(#paint2_linear_1_1017)"/>
</g>
</g>
<path d="M69.4197 51.2094C68.3997 51.2094 67.5878 50.9157 66.9839 50.3282C66.3801 49.7325 66.0782 48.8675 66.0782 47.7333V45.7749C66.0782 44.6406 66.3801 43.7798 66.9839 43.1922C67.5878 42.5966 68.3997 42.2987 69.4197 42.2987C70.4315 42.2987 71.2067 42.5802 71.7453 43.1433C72.292 43.7063 72.5654 44.4774 72.5654 45.4566V45.5178H71.5494V45.4199C71.5494 44.7753 71.374 44.249 71.0231 43.841C70.6804 43.4248 70.1459 43.2167 69.4197 43.2167C68.6934 43.2167 68.1263 43.4411 67.7183 43.8899C67.3103 44.3306 67.1063 44.9507 67.1063 45.7504V47.7578C67.1063 48.5574 67.3103 49.1817 67.7183 49.6305C68.1263 50.0711 68.6934 50.2914 69.4197 50.2914C70.1459 50.2914 70.6804 50.0874 71.0231 49.6794C71.374 49.2633 71.5494 48.7329 71.5494 48.0882V47.8924H72.5654V48.0515C72.5654 49.0307 72.292 49.8018 71.7453 50.3649C71.2067 50.9279 70.4315 51.2094 69.4197 51.2094ZM74.2129 51.0381V45.0527H75.1554V45.7871H75.3267C75.4328 45.526 75.596 45.3342 75.8163 45.2118C76.0366 45.0894 76.3263 45.0282 76.6854 45.0282H77.3953V45.9095H76.6242C76.1917 45.9095 75.8408 46.0319 75.5715 46.2767C75.3104 46.5134 75.1798 46.8846 75.1798 47.3906V51.0381H74.2129ZM81.3534 51.2094C80.7495 51.2094 80.2191 51.083 79.7622 50.83C79.3052 50.5689 78.9503 50.2058 78.6973 49.7406C78.4443 49.2755 78.3179 48.737 78.3179 48.125V47.9781C78.3179 47.3579 78.4443 46.8153 78.6973 46.3502C78.9503 45.885 79.3011 45.526 79.7499 45.273C80.1987 45.0119 80.7128 44.8814 81.2922 44.8814C81.8552 44.8814 82.353 45.0038 82.7855 45.2486C83.2179 45.4852 83.5566 45.8279 83.8014 46.2767C84.0462 46.7255 84.1686 47.2518 84.1686 47.8557V48.2963H79.2848C79.3093 48.941 79.5174 49.4469 79.9091 49.8141C80.3007 50.1731 80.7903 50.3526 81.3779 50.3526C81.8919 50.3526 82.2877 50.2343 82.5651 49.9977C82.8426 49.761 83.0547 49.4795 83.2016 49.1531L84.0339 49.557C83.9115 49.81 83.7402 50.063 83.5199 50.3159C83.3077 50.5689 83.0262 50.781 82.6753 50.9524C82.3326 51.1238 81.8919 51.2094 81.3534 51.2094ZM79.2971 47.5007H83.1894C83.1567 46.9458 82.965 46.5134 82.6141 46.2033C82.2714 45.8932 81.8307 45.7382 81.2922 45.7382C80.7455 45.7382 80.2967 45.8932 79.9458 46.2033C79.5949 46.5134 79.3787 46.9458 79.2971 47.5007ZM88.3889 51.2094C87.8748 51.2094 87.4015 51.087 86.9691 50.8422C86.5366 50.5974 86.1939 50.2425 85.9409 49.7774C85.6879 49.3122 85.5615 48.7614 85.5615 48.125V47.9658C85.5615 47.3294 85.6879 46.7826 85.9409 46.3257C86.1939 45.8606 86.5325 45.5056 86.9568 45.2608C87.3893 45.0078 87.8667 44.8814 88.3889 44.8814C88.8051 44.8814 89.1559 44.9385 89.4415 45.0527C89.7353 45.1588 89.9719 45.2975 90.1515 45.4689C90.331 45.6321 90.4697 45.8075 90.5676 45.9952H90.739V42.4701H91.7059V51.0381H90.7635V50.0466H90.5921C90.4289 50.3486 90.1759 50.6178 89.8332 50.8545C89.4905 51.0911 89.0091 51.2094 88.3889 51.2094ZM88.6459 50.3526C89.2661 50.3526 89.7679 50.1568 90.1515 49.7651C90.5431 49.3653 90.739 48.8104 90.739 48.1005V47.9903C90.739 47.2804 90.5431 46.7296 90.1515 46.3379C89.7679 45.9381 89.2661 45.7382 88.6459 45.7382C88.0339 45.7382 87.528 45.9381 87.1282 46.3379C86.7365 46.7296 86.5407 47.2804 86.5407 47.9903V48.1005C86.5407 48.8104 86.7365 49.3653 87.1282 49.7651C87.528 50.1568 88.0339 50.3526 88.6459 50.3526ZM93.7323 51.0381V45.0527H94.6993V51.0381H93.7323ZM94.2219 44.1225C94.0098 44.1225 93.8302 44.0531 93.6834 43.9144C93.5446 43.7757 93.4753 43.6002 93.4753 43.3881C93.4753 43.1678 93.5446 42.9882 93.6834 42.8495C93.8302 42.7108 94.0098 42.6414 94.2219 42.6414C94.4341 42.6414 94.6095 42.7108 94.7482 42.8495C94.887 42.9882 94.9563 43.1678 94.9563 43.3881C94.9563 43.6002 94.887 43.7757 94.7482 43.9144C94.6095 44.0531 94.4341 44.1225 94.2219 44.1225ZM98.9358 51.0381C98.593 51.0381 98.3278 50.9442 98.1402 50.7566C97.9606 50.5689 97.8709 50.3118 97.8709 49.9854V45.8973H96.0716V45.0527H97.8709V42.923H98.8378V45.0527H100.796V45.8973H98.8378V49.8386C98.8378 50.0834 98.9562 50.2058 99.1928 50.2058H100.527V51.0381H98.9358Z" fill="white"/>
<path d="M239.897 49.7172C236.742 49.7172 234.291 47.388 234.291 44.3822C234.291 41.4129 236.802 39.0381 239.939 39.0381C240.836 39.0381 241.581 39.221 242.488 39.6627V42.009C241.629 41.1942 240.879 40.8593 239.897 40.8593C237.95 40.8593 236.426 42.4102 236.426 44.3679C236.426 46.4399 237.903 47.892 239.988 47.892C240.93 47.892 241.659 47.5753 242.488 46.7725V49.1215C241.549 49.5481 240.787 49.7172 239.897 49.7172Z" fill="white"/>
<path d="M230.582 43.1865C229.336 42.7468 228.972 42.4539 228.972 41.9015C228.972 41.2593 229.623 40.7724 230.517 40.7724C231.137 40.7724 231.648 41.0113 232.192 41.5951L233.27 40.2346C232.38 39.4806 231.314 39.0988 230.153 39.0988C228.274 39.0988 226.841 40.3573 226.841 42.0213C226.841 43.4341 227.507 44.1509 229.45 44.8315C230.263 45.1033 230.675 45.2891 230.884 45.4149C231.298 45.6724 231.504 46.0415 231.504 46.4681C231.504 47.2995 230.82 47.9107 229.895 47.9107C228.91 47.9107 228.113 47.4361 227.636 46.5447L226.301 47.7893C227.255 49.1354 228.399 49.7371 229.976 49.7371C232.125 49.7371 233.64 48.3516 233.64 46.3784C233.64 44.7525 232.937 44.0155 230.582 43.1865Z" fill="white"/>
<path fill-rule="evenodd" clip-rule="evenodd" d="M213.754 39.269H216.797C220.154 39.269 222.496 41.3648 222.496 44.3821C222.496 45.8894 221.778 47.3443 220.568 48.3079C219.55 49.1214 218.388 49.4901 216.778 49.4901H213.754V39.269ZM216.382 47.7583C217.722 47.7583 218.56 47.5106 219.219 46.9443C219.932 46.3343 220.36 45.3529 220.36 44.3679C220.36 43.3876 219.932 42.4399 219.219 41.8256C218.528 41.2311 217.722 41.0001 216.382 41.0001H215.826V47.7583H216.382Z" fill="white"/>
<path d="M225.514 39.269H223.451V49.4901H225.514V39.269Z" fill="white"/>
<path d="M259.265 46.1311L256.434 39.269H254.176L258.677 49.7481H259.787L264.376 39.269H262.136L259.265 46.1311Z" fill="white"/>
<path d="M271.188 49.4901H265.316V39.269H271.188V41.0001H267.388V43.2678H271.044V44.9993H267.388V47.7582H271.188V49.4901Z" fill="white"/>
<path fill-rule="evenodd" clip-rule="evenodd" d="M279.385 42.2847C279.385 40.3707 278.022 39.269 275.631 39.269H272.555V49.4901H274.631V45.3806H274.901L277.761 49.4901H280.309L276.968 45.1822C278.529 44.875 279.385 43.8488 279.385 42.2847ZM275.232 43.9691H274.631V40.8776H275.266C276.56 40.8776 277.253 41.4002 277.253 42.396C277.253 43.4191 276.56 43.9691 275.232 43.9691Z" fill="white"/>
<path d="M248.932 49.7338C251.991 49.7338 254.468 47.3487 254.468 44.4059C254.468 41.4628 251.991 39.0773 248.932 39.0773C245.875 39.0773 243.398 41.4628 243.398 44.4059C243.398 47.3487 245.875 49.7338 248.932 49.7338Z" fill="white"/>
<path fill-rule="evenodd" clip-rule="evenodd" d="M181.247 50.6941C186.047 52.3923 186.599 45.6746 184.431 43.2243C184.807 42.1527 184.387 40.5548 183.259 39.1699C181.799 37.4089 179.731 36.7071 178.647 37.6032C177.544 38.5119 177.844 40.6738 179.292 42.4285C180.376 43.7445 181.799 44.4651 182.902 44.3836C183.34 44.628 183.629 44.8599 184.211 45.5367C187.689 50.1176 182.3 50.669 173.019 44.3335C162.253 36.9703 160.536 41.8645 162.184 45.543C163.193 46.5331 162.397 48.388 163.406 49.3029C164.584 50.3933 166.245 51.7218 167.887 51.5589C166.508 50.7317 165.349 49.704 164.102 48.5384C164.052 48.5008 164.014 48.4506 164.002 48.3942C163.97 48.3316 163.939 48.2564 163.939 48.1875V48.1436C163.914 48.0872 163.92 48.0308 163.939 47.9619C163.939 47.8929 163.964 47.824 164.002 47.7739L165.105 45.6808V45.6683C165.117 45.6244 165.148 45.5931 165.167 45.568C165.199 45.543 165.242 45.5242 165.28 45.4991C165.324 45.4928 165.38 45.4991 165.43 45.5242C165.487 45.5304 165.531 45.5868 165.612 45.637V45.6495L170.281 49.892C170.343 49.9421 170.419 49.986 170.488 49.9985C170.519 48.6449 167.592 46.1696 166.358 45.0542L165.568 44.3398C164.647 43.5878 163.845 45.1544 162.817 44.2708C160.636 42.5601 163.507 41.2002 168.344 42.7481C174.373 44.6719 177.149 49.234 181.253 50.6878L181.247 50.6941ZM165.148 47.5671C165.048 47.4793 164.917 47.4417 164.797 47.4543C164.666 47.4605 164.547 47.5232 164.44 47.6235C164.353 47.7237 164.302 47.8553 164.309 47.9869C164.309 48.0997 164.353 48.2376 164.453 48.3253C170.187 52.5615 170.3 52.643 165.148 47.5796V47.5671ZM165.813 46.32C165.719 46.2197 165.593 46.1821 165.468 46.1884C165.336 46.1947 165.217 46.2448 165.13 46.3576C165.029 46.4516 164.992 46.5895 164.985 46.7148C164.992 46.8401 165.042 46.9655 165.142 47.0532C171.741 52.5553 171.058 51.7343 165.819 46.32H165.813Z" fill="white"/>
</g>
<g filter="url(#filter9_d_1_1017)">
<mask id="mask2_1_1017" style="mask-type:alpha" maskUnits="userSpaceOnUse" x="10" y="24" width="325" height="199">
<rect x="10.6436" y="24.2627" width="324" height="198" rx="18.9" fill="#D9D9D9"/>
</mask>
<g mask="url(#mask2_1_1017)">
<g filter="url(#filter10_f_1_1017)">
<rect x="381.612" y="237.713" width="417.768" height="254.85" rx="18.9" transform="rotate(180 381.612 237.713)" fill="url(#paint3_linear_1_1017)"/>
</g>
<g filter="url(#filter11_f_1_1017)">
<circle cx="310.344" cy="205.163" r="81" fill="#F88282"/>
</g>
<g filter="url(#filter12_f_1_1017)">
<circle cx="-6.45642" cy="84.5627" r="81" fill="#D282F8"/>
</g>
<g filter="url(#filter13_f_1_1017)">
<circle cx="201.444" cy="19.7626" r="46.8" fill="#4800E2"/>
</g>
<path d="M52.3387 62.9643C51.1387 62.9643 50.1835 62.6187 49.4731 61.9275C48.7627 61.2267 48.4075 60.2091 48.4075 58.8747V56.5707C48.4075 55.2363 48.7627 54.2235 49.4731 53.5323C50.1835 52.8315 51.1387 52.4811 52.3387 52.4811C53.5291 52.4811 54.4411 52.8123 55.0747 53.4747C55.7179 54.1371 56.0395 55.0443 56.0395 56.1963V56.2683H54.8443V56.1531C54.8443 55.3947 54.6379 54.7755 54.2251 54.2955C53.8219 53.8059 53.1931 53.5611 52.3387 53.5611C51.4843 53.5611 50.8171 53.8251 50.3371 54.3531C49.8571 54.8715 49.6171 55.6011 49.6171 56.5419V58.9035C49.6171 59.8443 49.8571 60.5787 50.3371 61.1067C50.8171 61.6251 51.4843 61.8843 52.3387 61.8843C53.1931 61.8843 53.8219 61.6443 54.2251 61.1643C54.6379 60.6747 54.8443 60.0507 54.8443 59.2923V59.0619H56.0395V59.2491C56.0395 60.4011 55.7179 61.3083 55.0747 61.9707C54.4411 62.6331 53.5291 62.9643 52.3387 62.9643ZM57.9777 62.7627V55.7211H59.0865V56.5851H59.2881C59.4129 56.2779 59.6049 56.0523 59.8641 55.9083C60.1233 55.7643 60.4641 55.6923 60.8865 55.6923H61.7217V56.7291H60.8145C60.3057 56.7291 59.8929 56.8731 59.5761 57.1611C59.2689 57.4395 59.1153 57.8763 59.1153 58.4715V62.7627H57.9777ZM66.3783 62.9643C65.6679 62.9643 65.0439 62.8155 64.5063 62.5179C63.9687 62.2107 63.5511 61.7835 63.2535 61.2363C62.9559 60.6891 62.8071 60.0555 62.8071 59.3355V59.1627C62.8071 58.4331 62.9559 57.7947 63.2535 57.2475C63.5511 56.7003 63.9639 56.2779 64.4919 55.9803C65.0199 55.6731 65.6247 55.5195 66.3063 55.5195C66.9687 55.5195 67.5543 55.6635 68.0631 55.9515C68.5719 56.2299 68.9703 56.6331 69.2583 57.1611C69.5463 57.6891 69.6903 58.3083 69.6903 59.0187V59.5371H63.9447C63.9735 60.2955 64.2183 60.8907 64.6791 61.3227C65.1399 61.7451 65.7159 61.9563 66.4071 61.9563C67.0119 61.9563 67.4775 61.8171 67.8039 61.5387C68.1303 61.2603 68.3799 60.9291 68.5527 60.5451L69.5319 61.0203C69.3879 61.3179 69.1863 61.6155 68.9271 61.9131C68.6775 62.2107 68.3463 62.4603 67.9335 62.6619C67.5303 62.8635 67.0119 62.9643 66.3783 62.9643ZM63.9591 58.6011H68.5383C68.4999 57.9483 68.2743 57.4395 67.8615 57.0747C67.4583 56.7099 66.9399 56.5275 66.3063 56.5275C65.6631 56.5275 65.1351 56.7099 64.7223 57.0747C64.3095 57.4395 64.0551 57.9483 63.9591 58.6011ZM74.6554 62.9643C74.0506 62.9643 73.4938 62.8203 72.985 62.5323C72.4762 62.2443 72.073 61.8267 71.7754 61.2795C71.4778 60.7323 71.329 60.0843 71.329 59.3355V59.1483C71.329 58.3995 71.4778 57.7563 71.7754 57.2187C72.073 56.6715 72.4714 56.2539 72.9706 55.9659C73.4794 55.6683 74.041 55.5195 74.6554 55.5195C75.145 55.5195 75.5578 55.5867 75.8938 55.7211C76.2394 55.8459 76.5178 56.0091 76.729 56.2107C76.9402 56.4027 77.1034 56.6091 77.2186 56.8299H77.4202V52.6827H78.5578V62.7627H77.449V61.5963H77.2474C77.0554 61.9515 76.7578 62.2683 76.3546 62.5467C75.9514 62.8251 75.385 62.9643 74.6554 62.9643ZM74.9578 61.9563C75.6874 61.9563 76.2778 61.7259 76.729 61.2651C77.1898 60.7947 77.4202 60.1419 77.4202 59.3067V59.1771C77.4202 58.3419 77.1898 57.6939 76.729 57.2331C76.2778 56.7627 75.6874 56.5275 74.9578 56.5275C74.2378 56.5275 73.6426 56.7627 73.1722 57.2331C72.7114 57.6939 72.481 58.3419 72.481 59.1771V59.3067C72.481 60.1419 72.7114 60.7947 73.1722 61.2651C73.6426 61.7259 74.2378 61.9563 74.9578 61.9563ZM80.9418 62.7627V55.7211H82.0794V62.7627H80.9418ZM81.5178 54.6267C81.2682 54.6267 81.057 54.5451 80.8842 54.3819C80.721 54.2187 80.6394 54.0123 80.6394 53.7627C80.6394 53.5035 80.721 53.2923 80.8842 53.1291C81.057 52.9659 81.2682 52.8843 81.5178 52.8843C81.7674 52.8843 81.9738 52.9659 82.137 53.1291C82.3002 53.2923 82.3818 53.5035 82.3818 53.7627C82.3818 54.0123 82.3002 54.2187 82.137 54.3819C81.9738 54.5451 81.7674 54.6267 81.5178 54.6267ZM87.0635 62.7627C86.6603 62.7627 86.3483 62.6523 86.1275 62.4315C85.9163 62.2107 85.8107 61.9083 85.8107 61.5243V56.7147H83.6939V55.7211H85.8107V53.2155H86.9483V55.7211H89.2523V56.7147H86.9483V61.3515C86.9483 61.6395 87.0875 61.7835 87.3659 61.7835H88.9355V62.7627H87.0635Z" fill="#F2F2F2"/>
<path d="M265.054 49.0992L257.395 67.3774H252.399L248.63 52.7885C248.401 51.8912 248.204 51.562 247.506 51.184C246.371 50.5671 244.494 49.9892 242.844 49.6283L242.956 49.0992H250.999C251.525 49.0987 252.034 49.2861 252.433 49.6278C252.833 49.9694 253.097 50.4426 253.179 50.9621L255.17 61.5399L260.089 49.0992H265.054ZM284.634 61.4106C284.654 56.5851 277.965 56.3193 278.012 54.1637C278.026 53.5078 278.65 52.8104 280.015 52.6324C281.615 52.4804 283.226 52.7635 284.678 53.4517L285.507 49.5747C284.093 49.043 282.596 48.768 281.085 48.7627C276.413 48.7627 273.125 51.2499 273.095 54.8075C273.066 57.4385 275.443 58.904 277.234 59.7818C279.077 60.6767 279.696 61.2522 279.686 62.0519C279.674 63.2809 278.219 63.8198 276.859 63.8417C274.482 63.8783 273.105 63.2004 272.003 62.6884L271.148 66.6922C272.252 67.1994 274.29 67.6432 276.403 67.6627C281.368 67.6627 284.617 65.2097 284.634 61.4106ZM296.971 67.3774H301.344L297.529 49.0992H293.492C293.061 49.0952 292.638 49.2209 292.279 49.46C291.92 49.6992 291.642 50.0407 291.479 50.4403L284.388 67.3774H289.351L290.338 64.6464H296.403L296.971 67.3774ZM291.698 60.901L294.185 54.0369L295.618 60.901H291.698ZM271.808 49.0992L267.901 67.3774H263.172L267.084 49.0992H271.808Z" fill="#F2F2F2"/>
</g>
</g>
<defs>
<filter id="filter0_d_1_1017" x="49.6436" y="0.262695" width="236.8" height="146.6" filterUnits="userSpaceOnUse" color-interpolation-filters="sRGB">
<feFlood flood-opacity="0" result="BackgroundImageFix"/>
<feColorMatrix in="SourceAlpha" type="matrix" values="0 0 0 0 0 0 0 0 0 0 0 0 0 0 0 0 0 0 127 0" result="hardAlpha"/>
<feOffset dx="-6" dy="4"/>
<feGaussianBlur stdDeviation="2"/>
<feComposite in2="hardAlpha" operator="out"/>
<feColorMatrix type="matrix" values="0 0 0 0 0 0 0 0 0 0 0 0 0 0 0 0 0 0 0.25 0"/>
<feBlend mode="normal" in2="BackgroundImageFix" result="effect1_dropShadow_1_1017"/>
<feBlend mode="normal" in="SourceGraphic" in2="effect1_dropShadow_1_1017" result="shape"/>
</filter>
<filter id="filter1_f_1_1017" x="9.87318" y="-45.7278" width="326.458" height="212.415" filterUnits="userSpaceOnUse" color-interpolation-filters="sRGB">
<feFlood flood-opacity="0" result="BackgroundImageFix"/>
<feBlend mode="normal" in="SourceGraphic" in2="BackgroundImageFix" result="shape"/>
<feGaussianBlur stdDeviation="8.505" result="effect1_foregroundBlur_1_1017"/>
</filter>
<filter id="filter2_f_1_1017" x="125.793" y="-41.3176" width="323.19" height="323.19" filterUnits="userSpaceOnUse" color-interpolation-filters="sRGB">
<feFlood flood-opacity="0" result="BackgroundImageFix"/>
<feBlend mode="normal" in="SourceGraphic" in2="BackgroundImageFix" result="shape"/>
<feGaussianBlur stdDeviation="37.8" result="effect1_foregroundBlur_1_1017"/>
</filter>
<filter id="filter3_f_1_1017" x="-38.0067" y="-99.2773" width="234.36" height="234.36" filterUnits="userSpaceOnUse" color-interpolation-filters="sRGB">
<feFlood flood-opacity="0" result="BackgroundImageFix"/>
<feBlend mode="normal" in="SourceGraphic" in2="BackgroundImageFix" result="shape"/>
<feGaussianBlur stdDeviation="34.335" result="effect1_foregroundBlur_1_1017"/>
</filter>
<filter id="filter4_d_1_1017" x="24.6436" y="12.2627" width="286.401" height="176.301" filterUnits="userSpaceOnUse" color-interpolation-filters="sRGB">
<feFlood flood-opacity="0" result="BackgroundImageFix"/>
<feColorMatrix in="SourceAlpha" type="matrix" values="0 0 0 0 0 0 0 0 0 0 0 0 0 0 0 0 0 0 127 0" result="hardAlpha"/>
<feOffset dx="-7" dy="4"/>
<feGaussianBlur stdDeviation="2"/>
<feComposite in2="hardAlpha" operator="out"/>
<feColorMatrix type="matrix" values="0 0 0 0 0 0 0 0 0 0 0 0 0 0 0 0 0 0 0.25 0"/>
<feBlend mode="normal" in2="BackgroundImageFix" result="effect1_dropShadow_1_1017"/>
<feBlend mode="normal" in="SourceGraphic" in2="effect1_dropShadow_1_1017" result="shape"/>
</filter>
<filter id="filter5_f_1_1017" x="-24.7912" y="-32.1069" width="396.413" height="257.933" filterUnits="userSpaceOnUse" color-interpolation-filters="sRGB">
<feFlood flood-opacity="0" result="BackgroundImageFix"/>
<feBlend mode="normal" in="SourceGraphic" in2="BackgroundImageFix" result="shape"/>
<feGaussianBlur stdDeviation="10.3275" result="effect1_foregroundBlur_1_1017"/>
</filter>
<filter id="filter6_f_1_1017" x="-164.021" y="-24.4564" width="480.42" height="475.83" filterUnits="userSpaceOnUse" color-interpolation-filters="sRGB">
<feFlood flood-opacity="0" result="BackgroundImageFix"/>
<feBlend mode="normal" in="SourceGraphic" in2="BackgroundImageFix" result="shape"/>
<feGaussianBlur stdDeviation="76.5" result="effect1_foregroundBlur_1_1017"/>
</filter>
<filter id="filter7_f_1_1017" x="140.449" y="-100.191" width="310.342" height="306.765" filterUnits="userSpaceOnUse" color-interpolation-filters="sRGB">
<feFlood flood-opacity="0" result="BackgroundImageFix"/>
<feBlend mode="normal" in="SourceGraphic" in2="BackgroundImageFix" result="shape"/>
<feGaussianBlur stdDeviation="43.605" result="effect1_foregroundBlur_1_1017"/>
</filter>
<filter id="filter8_f_1_1017" x="148.864" y="29.8586" width="265.455" height="263.16" filterUnits="userSpaceOnUse" color-interpolation-filters="sRGB">
<feFlood flood-opacity="0" result="BackgroundImageFix"/>
<feBlend mode="normal" in="SourceGraphic" in2="BackgroundImageFix" result="shape"/>
<feGaussianBlur stdDeviation="43.605" result="effect1_foregroundBlur_1_1017"/>
</filter>
<filter id="filter9_d_1_1017" x="0.643555" y="24.2627" width="334" height="206" filterUnits="userSpaceOnUse" color-interpolation-filters="sRGB">
<feFlood flood-opacity="0" result="BackgroundImageFix"/>
<feColorMatrix in="SourceAlpha" type="matrix" values="0 0 0 0 0 0 0 0 0 0 0 0 0 0 0 0 0 0 127 0" result="hardAlpha"/>
<feOffset dx="-6" dy="4"/>
<feGaussianBlur stdDeviation="2"/>
<feComposite in2="hardAlpha" operator="out"/>
<feColorMatrix type="matrix" values="0 0 0 0 0 0 0 0 0 0 0 0 0 0 0 0 0 0 0.25 0"/>
<feBlend mode="normal" in2="BackgroundImageFix" result="effect1_dropShadow_1_1017"/>
<feBlend mode="normal" in="SourceGraphic" in2="effect1_dropShadow_1_1017" result="shape"/>
</filter>
<filter id="filter10_f_1_1017" x="-60.4567" y="-41.4375" width="466.369" height="303.45" filterUnits="userSpaceOnUse" color-interpolation-filters="sRGB">
<feFlood flood-opacity="0" result="BackgroundImageFix"/>
<feBlend mode="normal" in="SourceGraphic" in2="BackgroundImageFix" result="shape"/>
<feGaussianBlur stdDeviation="12.15" result="effect1_foregroundBlur_1_1017"/>
</filter>
<filter id="filter11_f_1_1017" x="116.844" y="11.6627" width="387" height="387" filterUnits="userSpaceOnUse" color-interpolation-filters="sRGB">
<feFlood flood-opacity="0" result="BackgroundImageFix"/>
<feBlend mode="normal" in="SourceGraphic" in2="BackgroundImageFix" result="shape"/>
<feGaussianBlur stdDeviation="56.25" result="effect1_foregroundBlur_1_1017"/>
</filter>
<filter id="filter12_f_1_1017" x="-199.956" y="-108.937" width="387" height="387" filterUnits="userSpaceOnUse" color-interpolation-filters="sRGB">
<feFlood flood-opacity="0" result="BackgroundImageFix"/>
<feBlend mode="normal" in="SourceGraphic" in2="BackgroundImageFix" result="shape"/>
<feGaussianBlur stdDeviation="56.25" result="effect1_foregroundBlur_1_1017"/>
</filter>
<filter id="filter13_f_1_1017" x="79.9436" y="-101.737" width="243" height="243" filterUnits="userSpaceOnUse" color-interpolation-filters="sRGB">
<feFlood flood-opacity="0" result="BackgroundImageFix"/>
<feBlend mode="normal" in="SourceGraphic" in2="BackgroundImageFix" result="shape"/>
<feGaussianBlur stdDeviation="37.35" result="effect1_foregroundBlur_1_1017"/>
</filter>
<linearGradient id="paint0_linear_1_1017" x1="593.024" y1="167.598" x2="335.071" y2="339.308" gradientUnits="userSpaceOnUse">
<stop offset="0.234375" stop-color="#0A0A0A"/>
<stop offset="0.833333" stop-color="#119144"/>
</linearGradient>
<linearGradient id="paint1_linear_1_1017" x1="683.32" y1="226.932" x2="370.092" y2="435.436" gradientUnits="userSpaceOnUse">
<stop offset="0.185048" stop-color="#0A0A0A"/>
<stop offset="0.39201" stop-color="#010C27"/>
<stop offset="0.609375" stop-color="#002B99"/>
</linearGradient>
<linearGradient id="paint2_linear_1_1017" x1="281.592" y1="117.069" x2="281.592" y2="205.809" gradientUnits="userSpaceOnUse">
<stop stop-color="#002B99"/>
<stop offset="1"/>
</linearGradient>
<linearGradient id="paint3_linear_1_1017" x1="772.615" y1="263.314" x2="404.112" y2="508.613" gradientUnits="userSpaceOnUse">
<stop stop-color="#0A0A0A"/>
<stop offset="0.630208" stop-color="#560099"/>
</linearGradient>
<clipPath id="clip0_1_1017">
<rect width="25.83" height="22.68" fill="white" transform="translate(192.574 31.9541) rotate(-38.1111)"/>
</clipPath>
</defs>
</svg>
