<svg width="13" height="13" viewBox="0 0 13 13" fill="none" xmlns="http://www.w3.org/2000/svg">
<g clip-path="url(#clip0_1_1271)">
<path d="M9.23439 5.56265L7.23439 3.56265M1.48438 11.3127L3.17656 11.1246C3.3833 11.1017 3.48668 11.0902 3.5833 11.0589C3.66902 11.0311 3.7506 10.9919 3.82582 10.9423C3.9106 10.8864 3.98415 10.8129 4.13124 10.6658L10.7344 4.06265C11.2867 3.51037 11.2867 2.61494 10.7344 2.06265C10.1821 1.51037 9.28667 1.51037 8.73439 2.06265L2.13124 8.66579C1.98415 8.81288 1.9106 8.88642 1.85469 8.97121C1.80509 9.04643 1.76588 9.12801 1.73813 9.21373C1.70685 9.31035 1.69537 9.41372 1.6724 9.62047L1.48438 11.3127Z" stroke="white" stroke-opacity="0.8" stroke-linejoin="round"/>
</g>
<defs>
<clipPath id="clip0_1_1271">
<rect width="12" height="12" fill="white" transform="translate(0.234375 0.562744)"/>
</clipPath>
</defs>
</svg>
