<svg width="31" height="22" viewBox="0 0 31 22" fill="none" xmlns="http://www.w3.org/2000/svg">
<g filter="url(#filter0_d_1_941)">
<path d="M15.4569 3.08129C15.5227 2.91035 15.7645 2.91035 15.8303 3.08129L16.9849 6.08334C17.1729 6.57216 17.2669 6.81657 17.4131 7.02215C17.5427 7.20436 17.7018 7.36356 17.8841 7.49312C18.0896 7.6393 18.3341 7.7333 18.8229 7.92131L21.8249 9.07594C21.9959 9.14169 21.9959 9.38354 21.8249 9.44928L18.8229 10.6039C18.3341 10.7919 18.0896 10.8859 17.8841 11.0321C17.7018 11.1617 17.5427 11.3209 17.4131 11.5031C17.2669 11.7087 17.1729 11.9531 16.9849 12.4419L15.8303 15.4439C15.7645 15.6149 15.5227 15.6149 15.4569 15.4439L14.3023 12.4419C14.1143 11.9531 14.0203 11.7087 13.8741 11.5031C13.7445 11.3209 13.5853 11.1617 13.4031 11.0321C13.1975 10.8859 12.9531 10.7919 12.4643 10.6039L9.46227 9.44928C9.29133 9.38354 9.29133 9.14169 9.46227 9.07594L12.4643 7.92131C12.9531 7.7333 13.1975 7.6393 13.4031 7.49312C13.5853 7.36356 13.7445 7.20436 13.8741 7.02215C14.0203 6.81657 14.1143 6.57216 14.3023 6.08334L15.4569 3.08129Z" fill="url(#paint0_linear_1_941)"/>
</g>
<defs>
<filter id="filter0_d_1_941" x="5.33411" y="0.953125" width="20.619" height="20.6191" filterUnits="userSpaceOnUse" color-interpolation-filters="sRGB">
<feFlood flood-opacity="0" result="BackgroundImageFix"/>
<feColorMatrix in="SourceAlpha" type="matrix" values="0 0 0 0 0 0 0 0 0 0 0 0 0 0 0 0 0 0 127 0" result="hardAlpha"/>
<feOffset dy="2"/>
<feGaussianBlur stdDeviation="2"/>
<feComposite in2="hardAlpha" operator="out"/>
<feColorMatrix type="matrix" values="0 0 0 0 0 0 0 0 0 0 0 0 0 0 0 0 0 0 0.15 0"/>
<feBlend mode="normal" in2="BackgroundImageFix" result="effect1_dropShadow_1_941"/>
<feBlend mode="normal" in="SourceGraphic" in2="effect1_dropShadow_1_941" result="shape"/>
</filter>
<linearGradient id="paint0_linear_1_941" x1="15.6434" y1="0.762939" x2="7.71324" y2="17.3883" gradientUnits="userSpaceOnUse">
<stop offset="0.04" stop-color="#39B6D8"/>
<stop offset="0.49" stop-color="#F7D344"/>
<stop offset="0.95" stop-color="#E38330"/>
</linearGradient>
</defs>
</svg>
