<svg width="25" height="15" viewBox="0 0 25 15" fill="none" xmlns="http://www.w3.org/2000/svg">
<path fill-rule="evenodd" clip-rule="evenodd" d="M20.1378 13.6944C24.938 15.3927 25.4895 8.67492 23.3213 6.22469C23.6973 5.15311 23.2774 3.55513 22.1494 2.17022C20.6893 0.409313 18.6213 -0.292543 17.5372 0.603577C16.4343 1.51223 16.7351 3.6742 18.1827 5.42884C19.2668 6.74482 20.6893 7.46547 21.7922 7.38401C22.2309 7.62841 22.5191 7.86027 23.1019 8.53706C26.5799 13.1179 21.1906 13.6694 11.9098 7.33388C1.14386 -0.0293466 -0.573182 4.86485 1.07493 8.54332C2.08385 9.53344 1.28799 11.3883 2.29691 12.3033C3.47502 13.3937 5.13567 14.7222 6.77751 14.5592C5.39886 13.732 4.23954 12.7043 2.9925 11.5387C2.94236 11.5011 2.90477 11.451 2.89223 11.3946C2.8609 11.3319 2.82956 11.2568 2.82956 11.1878V11.144C2.8045 11.0876 2.81076 11.0312 2.82956 10.9622C2.82956 10.8933 2.85463 10.8244 2.89223 10.7742L3.99515 8.68119V8.66866C4.00768 8.62479 4.03902 8.59346 4.05782 8.56839C4.08915 8.54332 4.13302 8.52452 4.17062 8.49946C4.21448 8.49319 4.27088 8.49946 4.32101 8.52452C4.37741 8.53079 4.42128 8.58719 4.50274 8.63732V8.64986L9.17134 12.8923C9.234 12.9425 9.3092 12.9863 9.37814 12.9989C9.40947 11.6453 6.48298 9.16998 5.24846 8.05453L4.45888 7.34014C3.53769 6.58815 2.73557 8.1548 1.70785 7.27121C-0.472917 5.56044 2.39718 4.20059 7.23497 5.74843C13.2634 7.67227 16.0395 12.2343 20.1441 13.6882L20.1378 13.6944ZM4.03901 10.5674C3.93875 10.4797 3.80715 10.4421 3.68809 10.4546C3.55649 10.4609 3.43742 10.5236 3.33089 10.6238C3.24316 10.7241 3.19303 10.8557 3.19929 10.9873C3.19929 11.1001 3.24316 11.238 3.34343 11.3257C9.07734 15.5619 9.19014 15.6434 4.03901 10.58V10.5674ZM4.70327 9.32038C4.60927 9.22011 4.48394 9.18252 4.35861 9.18878C4.22701 9.19505 4.10795 9.24518 4.02021 9.35798C3.91995 9.45198 3.88235 9.58984 3.87609 9.71517C3.88235 9.8405 3.93249 9.96584 4.03275 10.0536C10.6315 15.5556 9.94839 14.7347 4.70954 9.32038H4.70327Z" fill="white"/>
</svg>
