<svg width="44" height="15" viewBox="0 0 44 15" fill="none" xmlns="http://www.w3.org/2000/svg">
<path d="M16.6695 0.512459L10.9849 14.0793H7.27606L4.47902 3.25079C4.30895 2.58476 4.16241 2.34043 3.64497 2.0599C2.80188 1.602 1.40879 1.17306 0.18396 0.905201L0.267184 0.512459H6.23757C6.62772 0.512067 7.00516 0.651211 7.30176 0.904775C7.59836 1.15834 7.79458 1.50961 7.855 1.8952L9.33313 9.74643L12.9841 0.512459H16.6695ZM31.2028 9.6505C31.2173 6.06877 26.2528 5.87149 26.2872 4.27156C26.2981 3.78471 26.7612 3.26708 27.7744 3.13496C28.9617 3.02216 30.1575 3.23226 31.2354 3.74308L31.8505 0.865383C30.8011 0.470732 29.6897 0.266635 28.5686 0.262695C25.1004 0.262695 22.6598 2.10877 22.638 4.74937C22.6163 6.70222 24.3803 7.78995 25.7101 8.44151C27.0778 9.10573 27.5374 9.53286 27.5301 10.1265C27.5211 11.0387 26.441 11.4387 25.4315 11.4549C23.6675 11.4821 22.6453 10.9789 21.8275 10.5989L21.1925 13.5707C22.0121 13.9471 23.5246 14.2765 25.0931 14.291C28.7785 14.291 31.1902 12.4703 31.2028 9.6505ZM40.3592 14.0793H43.605L40.7735 0.512459H37.7775C37.4574 0.509491 37.1437 0.602805 36.8773 0.780299C36.6108 0.957792 36.4038 1.21128 36.2831 1.50789L31.0201 14.0793H34.7036L35.4364 12.0522H39.9377L40.3592 14.0793ZM36.4459 9.27224L38.2913 4.17745L39.3551 9.27224H36.4459ZM21.6828 0.512459L18.7826 14.0793H15.2728L18.1765 0.512459H21.6828Z" fill="#F2F2F2"/>
</svg>
